<svg width="1013" height="317" viewBox="0 0 1013 317" fill="none" xmlns="http://www.w3.org/2000/svg">
<path d="M236.45 0H78.7809C35.342 0 0 35.342 0 78.7809V237.743C0 281.18 35.342 316.524 78.7809 316.524H236.45C279.889 316.524 315.231 281.177 315.231 237.743V78.7809C315.233 35.342 279.891 0 236.45 0V0ZM78.7809 29.1771H236.45C263.803 29.1771 286.054 51.43 286.054 78.7815V105.896H202.53C190.293 97.1808 175.359 92.0353 159.224 92.0353C143.092 92.0353 128.152 97.1828 115.916 105.896H29.174V78.7815C29.174 51.4306 51.4293 29.1771 78.7809 29.1771V29.1771ZM190.294 166.862C190.294 183.995 176.362 197.932 159.232 197.932C142.1 197.932 128.168 183.995 128.168 166.862C128.168 149.737 142.105 135.8 159.232 135.8C176.357 135.8 190.294 149.74 190.294 166.862ZM236.454 287.346H78.7847C51.4337 287.346 29.1803 265.088 29.1803 237.741L29.1827 135.072H91.5136C86.9649 144.729 84.4026 155.502 84.4026 166.861C84.4026 208.132 117.973 241.7 159.241 241.7C200.504 241.7 234.073 208.134 234.073 166.861C234.073 155.502 231.513 144.729 226.962 135.072H286.061V237.741C286.061 265.09 263.81 287.348 236.459 287.348L236.454 287.346Z" fill="#5A4AE3"/>
<path d="M263.183 82.6774C263.183 87.4922 259.246 91.4298 254.431 91.4298H227.383C222.568 91.4298 218.63 87.4922 218.63 82.6774V55.6292C218.63 50.8144 222.566 46.8768 227.383 46.8768H254.431C259.243 46.8768 263.183 50.8144 263.183 55.6292V82.6774Z" fill="#5A4AE3"/>
<path d="M551.25 118.875L535.625 247H501.875L514.75 142.875H474.625L462.625 241.5L456.125 264.25C454.708 268.583 452.625 271.958 449.875 274.375C447.125 276.875 443.292 278.125 438.375 278.125H424.375L441 142.875L432.75 141.125C430.25 140.625 428.292 139.792 426.875 138.625C425.542 137.375 425 135.542 425.25 133.125L426.875 118.875H444L444.375 115.75C445.292 107.917 447.375 100.625 450.625 93.875C453.958 87.125 458.458 81.2917 464.125 76.375C469.875 71.375 476.833 67.4583 485 64.625C493.25 61.7917 502.75 60.375 513.5 60.375C516.917 60.375 520.458 60.5833 524.125 61C527.792 61.3333 530.875 61.875 533.375 62.625L530 79.625C529.583 81.625 528.417 82.875 526.5 83.375C524.667 83.7917 522.583 84 520.25 84C512.5 84 505.958 84.6667 500.625 86C495.375 87.3333 491.042 89.3333 487.625 92C484.292 94.6667 481.75 98.0417 480 102.125C478.333 106.125 477.167 110.875 476.5 116.375L476.25 118.875H551.25Z" fill="#5A4AE3"/>
<path d="M607.805 142.625C614.221 133.625 621.221 126.958 628.805 122.625C636.471 118.292 644.43 116.125 652.68 116.125C658.013 116.125 662.846 117.208 667.18 119.375C671.513 121.542 675.096 124.708 677.93 128.875C680.846 133.042 682.888 138.167 684.055 144.25C685.221 150.333 685.305 157.292 684.305 165.125L674.555 247H640.18L649.805 165.125C650.805 157.375 650.43 151.917 648.68 148.75C646.93 145.5 643.846 143.875 639.43 143.875C636.263 143.875 633.013 144.833 629.68 146.75C626.346 148.583 623.138 151.208 620.055 154.625C616.971 158.042 614.138 162.167 611.555 167C608.971 171.833 606.888 177.208 605.305 183.125L598.18 247H563.68L579.18 118H596.805C600.388 118 603.18 118.875 605.18 120.625C607.18 122.375 608.18 125.167 608.18 129L607.805 142.625Z" fill="#5A4AE3"/>
<path d="M787.154 143.625C786.154 145.042 785.154 146.083 784.154 146.75C783.238 147.333 782.071 147.625 780.654 147.625C779.071 147.625 777.488 147.208 775.904 146.375C774.404 145.542 772.696 144.667 770.779 143.75C768.863 142.75 766.654 141.833 764.154 141C761.738 140.167 758.863 139.75 755.529 139.75C749.279 139.75 744.613 141.083 741.529 143.75C738.529 146.417 737.029 149.75 737.029 153.75C737.029 157 738.238 159.625 740.654 161.625C743.071 163.542 746.113 165.292 749.779 166.875C753.446 168.375 757.404 169.917 761.654 171.5C765.904 173.083 769.863 175.125 773.529 177.625C777.196 180.125 780.238 183.333 782.654 187.25C785.071 191.167 786.279 196.167 786.279 202.25C786.279 208.583 785.029 214.583 782.529 220.25C780.029 225.917 776.404 230.875 771.654 235.125C766.988 239.375 761.321 242.75 754.654 245.25C747.988 247.75 740.529 249 732.279 249C728.196 249 724.196 248.583 720.279 247.75C716.446 247 712.779 245.917 709.279 244.5C705.863 243 702.738 241.292 699.904 239.375C697.154 237.458 694.821 235.375 692.904 233.125L701.404 220.25C702.404 218.75 703.613 217.583 705.029 216.75C706.446 215.917 708.154 215.5 710.154 215.5C711.988 215.5 713.654 216.042 715.154 217.125C716.654 218.125 718.321 219.25 720.154 220.5C721.988 221.667 724.154 222.792 726.654 223.875C729.238 224.875 732.571 225.375 736.654 225.375C739.738 225.375 742.446 225 744.779 224.25C747.196 223.417 749.196 222.333 750.779 221C752.446 219.583 753.654 217.958 754.404 216.125C755.238 214.292 755.654 212.375 755.654 210.375C755.654 206.708 754.446 203.875 752.029 201.875C749.613 199.875 746.571 198.125 742.904 196.625C739.321 195.125 735.404 193.667 731.154 192.25C726.904 190.833 722.946 188.917 719.279 186.5C715.696 184.083 712.696 180.958 710.279 177.125C707.863 173.292 706.654 168.167 706.654 161.75C706.654 155.917 707.738 150.292 709.904 144.875C712.154 139.375 715.404 134.5 719.654 130.25C723.904 126 729.154 122.583 735.404 120C741.738 117.417 749.029 116.125 757.279 116.125C765.696 116.125 773.154 117.583 779.654 120.5C786.238 123.333 791.696 126.958 796.029 131.375L787.154 143.625Z" fill="#5A4AE3"/>
<path d="M813.086 220C813.086 219.417 813.086 218.75 813.086 218C813.086 217.167 813.128 216 813.211 214.5C813.378 212.917 813.586 210.875 813.836 208.375C814.169 205.792 814.586 202.458 815.086 198.375L821.961 142.875H810.711C809.044 142.875 807.669 142.292 806.586 141.125C805.586 139.958 805.253 138.208 805.586 135.875L807.211 122.375L826.711 118.625L837.336 85.25C838.503 81.5 841.044 79.625 844.961 79.625H863.461L858.586 118.875H888.711L885.836 142.875H855.711L849.086 196.5C848.669 199.917 848.336 202.625 848.086 204.625C847.836 206.625 847.628 208.167 847.461 209.25C847.378 210.333 847.336 211.083 847.336 211.5C847.336 211.833 847.336 212.083 847.336 212.25C847.336 215.167 848.003 217.5 849.336 219.25C850.669 220.917 852.669 221.75 855.336 221.75C856.836 221.75 858.128 221.583 859.211 221.25C860.294 220.833 861.211 220.417 861.961 220C862.794 219.5 863.544 219.083 864.211 218.75C864.878 218.333 865.586 218.125 866.336 218.125C867.419 218.125 868.211 218.375 868.711 218.875C869.211 219.292 869.711 220.042 870.211 221.125L877.711 237.625C872.878 241.375 867.586 244.208 861.836 246.125C856.086 248.042 850.294 249 844.461 249C834.961 249 827.419 246.458 821.836 241.375C816.336 236.208 813.419 229.083 813.086 220Z" fill="#5A4AE3"/>
<path d="M975.93 140.375C975.18 140.292 974.43 140.25 973.68 140.25C972.93 140.25 972.18 140.25 971.43 140.25C964.763 140.25 958.638 141.75 953.055 144.75C947.471 147.75 942.638 151.833 938.555 157C934.555 162.167 931.388 168.167 929.055 175C926.805 181.833 925.68 189.042 925.68 196.625C925.68 205.292 927.013 211.583 929.68 215.5C932.346 219.333 935.846 221.25 940.18 221.25C943.263 221.25 946.305 220.125 949.305 217.875C952.388 215.625 955.263 212.542 957.93 208.625C960.596 204.708 963.055 200.125 965.305 194.875C967.555 189.542 969.513 183.875 971.18 177.875L975.93 140.375ZM967.43 222.75C961.93 230.833 955.763 237.208 948.93 241.875C942.18 246.542 934.721 248.875 926.555 248.875C921.805 248.875 917.263 247.958 912.93 246.125C908.68 244.208 904.93 241.375 901.68 237.625C898.43 233.792 895.846 229 893.93 223.25C892.096 217.417 891.18 210.625 891.18 202.875C891.18 195.125 892.138 187.625 894.055 180.375C895.971 173.042 898.721 166.167 902.305 159.75C905.888 153.333 910.221 147.458 915.305 142.125C920.471 136.708 926.18 132.083 932.43 128.25C938.763 124.417 945.596 121.458 952.93 119.375C960.346 117.208 968.138 116.125 976.305 116.125C982.305 116.125 988.305 116.583 994.305 117.5C1000.3 118.333 1006.22 119.833 1012.05 122L996.555 247H978.18C976.013 247 974.18 246.708 972.68 246.125C971.263 245.542 970.096 244.75 969.18 243.75C968.346 242.75 967.763 241.583 967.43 240.25C967.096 238.917 966.93 237.458 966.93 235.875L967.43 222.75Z" fill="#5A4AE3"/>
</svg>
