<svg width="316" height="317" viewBox="0 0 316 317" fill="none" xmlns="http://www.w3.org/2000/svg">
<path d="M236.45 0H78.7809C35.342 0 0 35.342 0 78.7809V237.743C0 281.18 35.342 316.524 78.7809 316.524H236.45C279.889 316.524 315.231 281.177 315.231 237.743V78.7809C315.233 35.342 279.891 0 236.45 0V0ZM78.7809 29.1771H236.45C263.803 29.1771 286.054 51.43 286.054 78.7815V105.896H202.53C190.293 97.1808 175.359 92.0353 159.224 92.0353C143.092 92.0353 128.152 97.1828 115.916 105.896H29.174V78.7815C29.174 51.4306 51.4293 29.1771 78.7809 29.1771V29.1771ZM190.294 166.862C190.294 183.995 176.362 197.932 159.232 197.932C142.1 197.932 128.168 183.995 128.168 166.862C128.168 149.737 142.105 135.8 159.232 135.8C176.357 135.8 190.294 149.74 190.294 166.862ZM236.454 287.346H78.7847C51.4337 287.346 29.1803 265.088 29.1803 237.741L29.1827 135.072H91.5136C86.9649 144.729 84.4026 155.502 84.4026 166.861C84.4026 208.132 117.973 241.7 159.241 241.7C200.504 241.7 234.073 208.134 234.073 166.861C234.073 155.502 231.513 144.729 226.962 135.072H286.061V237.741C286.061 265.09 263.81 287.348 236.459 287.348L236.454 287.346Z" fill="#5A4AE3"/>
<path d="M263.183 82.6774C263.183 87.4922 259.246 91.4298 254.431 91.4298H227.383C222.568 91.4298 218.63 87.4922 218.63 82.6774V55.6292C218.63 50.8144 222.566 46.8768 227.383 46.8768H254.431C259.243 46.8768 263.183 50.8144 263.183 55.6292V82.6774Z" fill="#5A4AE3"/>
</svg>
